<?xml version="1.0" encoding="UTF-8" standalone="no"?>
<!-- Created with Inkscape (http://www.inkscape.org/) -->

<svg
   width="63.999996"
   height="63.999996"
   viewBox="0 0 16.933332 16.933332"
   version="1.1"
   id="svg1"
   xml:space="preserve"
   xmlns="http://www.w3.org/2000/svg"
   xmlns:svg="http://www.w3.org/2000/svg"><defs
     id="defs1" /><g
     id="layer7"><rect
       style="fill:#1a1a1a;stroke-width:0.0940741"
       id="rect2"
       width="16.933332"
       height="16.933332"
       x="2.7838135e-07"
       y="2.7838135e-07"
       ry="2.6458333" /></g><g
     id="g1"><path
       style="font-weight:bold;font-size:12.8271px;font-family:'Adwaita Sans';-inkscape-font-specification:'Adwaita Sans Bold';letter-spacing:-0.801743px;word-spacing:0px;fill:#ffffff;stroke-width:0.183937"
       d="M -12.421901,12.04149 V 2.7092734 h 2.029287 l 3.0000886,4.7725831 c 0.091861,0.1461421 0.2087744,0.34239 0.350741,0.5887438 0.1419666,0.2463538 0.2901964,0.5114973 0.4446895,0.7954305 0.1586685,0.2797577 0.3089861,0.5511645 0.4509527,0.8142202 l -0.2192131,0.494795 C -6.377882,9.8911131 -6.3904083,9.5654251 -6.4029343,9.1979821 -6.415461,8.8263636 -6.423812,8.4693594 -6.4279873,8.1269694 c -0.00417,-0.3423901 -0.00626,-0.6096213 -0.00626,-0.8016937 V 2.7092734 H -4.511435 V 12.04149 H -6.5469891 L -9.2652319,7.7198593 C -9.3779701,7.5403133 -9.5199367,7.306486 -9.6911317,7.0183773 -9.8623267,6.7260931 -10.054399,6.3962295 -10.267349,6.0287866 c -0.208775,-0.3716185 -0.4259,-0.7641144 -0.651376,-1.1774877 l 0.338214,-0.2192131 c 0.02505,0.4593037 0.04384,0.8914667 0.05637,1.2964891 0.01253,0.4008469 0.02088,0.7557633 0.02505,1.0647494 0.0042,0.3048107 0.0063,0.5449013 0.0063,0.7202718 V 12.04149 Z"
       id="text1-9"
       transform="scale(-1,1)"
       aria-label="N" /><rect
       style="fill:#ff0000;stroke-width:0.0732742"
       id="rect1"
       width="7.91009"
       height="1.4544146"
       x="4.5114303"
       y="12.769638" /></g></svg>
