<svg xmlns="http://www.w3.org/2000/svg" style="display:none">
  <symbol id="icon-x" viewBox="0 0 24 24">
    <path d="M18.244 2.25h3.308l-7.227 8.26 8.502 11.24H16.17l-5.214-6.817L4.99 21.75H1.68l7.73-8.835L1.254 2.25H8.80l4.713 6.231zm-1.161 17.52h1.833L7.084 4.126H5.117z"/>
  </symbol>
  <symbol id="icon-github" viewBox="0 0 24 24">
    <path d="M12 0C5.37 0 0 5.37 0 12c0 5.3 3.44 9.8 8.21 11.39.6.11.79-.26.79-.58v-2.23c-3.34.73-4.03-1.42-4.03-1.42-.55-1.39-1.33-1.76-1.33-1.76-1.09-.74.08-.73.08-.73 1.2.08 1.84 1.24 1.84 1.24 1.07 1.83 2.81 1.3 3.49 1 .11-.78.42-1.3.76-1.6-2.67-.31-5.47-1.33-5.47-5.93 0-1.31.47-2.38 1.24-3.22-.13-.3-.54-1.52.12-3.18 0 0 1.01-.32 3.3 1.23a11.5 11.5 0 016.01 0c2.29-1.55 3.3-1.23 3.3-1.23.65 1.65.24 2.87.12 3.18.77.84 1.23 1.91 1.23 3.22 0 4.61-2.8 5.62-5.48 5.92.43.37.82 1.1.82 2.22v3.29c0 .32.19.69.8.58A12 12 0 0024 12c0-6.63-5.37-12-12-12z"/>
  </symbol>
  <symbol id="icon-telegram" viewBox="0 0 24 24">
    <path d="M12 0C5.373 0 0 5.373 0 12s5.373 12 12 12 12-5.373 12-12S18.627 0 12 0zm5.562 8.161c-.18 1.897-.962 6.502-1.359 8.627-.168.9-.5 1.201-.82 1.23-.697.064-1.226-.461-1.901-.903-1.056-.692-1.653-1.123-2.678-1.799-1.185-.781-.417-1.21.258-1.911.177-.184 3.247-2.977 3.307-3.23.007-.032.014-.15-.056-.212s-.174-.041-.249-.024c-.106.024-1.793 1.139-5.062 3.345-.479.329-.913.489-1.302.481-.428-.009-1.252-.241-1.865-.44-.752-.244-1.349-.374-1.297-.789.027-.216.325-.437.893-.663 3.498-1.524 5.831-2.529 6.998-3.014 3.332-1.386 4.025-1.627 4.476-1.635.099-.002.321.023.465.141.121.098.155.23.171.324.016.094.036.308.02.475z"/>
  </symbol>
  <symbol id="icon-apple-music" viewBox="0 0 24 24">
    <path d="m24 6.124c0-.029.001-.063.001-.097 0-.743-.088-1.465-.253-2.156l.013.063c-.312-1.291-1.1-2.359-2.163-3.031l-.02-.012c-.536-.35-1.168-.604-1.847-.723l-.03-.004c-.463-.084-1.003-.138-1.553-.15h-.011c-.04 0-.083-.01-.124-.013h-12.025c-.152.01-.3.017-.455.026-.791.016-1.542.161-2.242.415l.049-.015c-1.306.501-2.327 1.495-2.853 2.748l-.012.033c-.17.409-.297.885-.36 1.38l-.003.028c-.051.343-.087.751-.1 1.165v.016c0 .032-.007.062-.01.093v12.224c.01.14.017.283.027.424.02.861.202 1.673.516 2.416l-.016-.043c.609 1.364 1.774 2.387 3.199 2.792l.035.009c.377.111.817.192 1.271.227l.022.001c.555.053 1.11.06 1.667.06h11.028c.554 0 1.099-.037 1.633-.107l-.063.007c.864-.096 1.645-.385 2.321-.823l-.021.013c.825-.539 1.47-1.29 1.867-2.176l.013-.032c.166-.383.295-.829.366-1.293l.004-.031c.084-.539.132-1.161.132-1.794 0-.086-.001-.171-.003-.256v.013q0-5.7 0-11.394zm-6.424 3.99v5.712c.001.025.001.054.001.083 0 .407-.09.794-.252 1.14l.007-.017c-.273.562-.771.979-1.373 1.137l-.015.003c-.316.094-.682.156-1.06.173h-.01c-.029.002-.062.002-.096.002-1.033 0-1.871-.838-1.871-1.871 0-.741.431-1.382 1.056-1.685l.011-.005c.293-.14.635-.252.991-.32l.027-.004c.378-.082.758-.153 1.134-.24.264-.045.468-.252.51-.513v-.003c.013-.057.02-.122.02-.189 0-.002 0-.003 0-.005q0-2.723 0-5.443c-.001-.066-.01-.13-.027-.19l.001.005c-.026-.134-.143-.235-.283-.235-.006 0-.012 0-.018.001h.001c-.178.013-.34.036-.499.07l.024-.004q-1.14.225-2.28.456l-3.7.748c-.016 0-.032.01-.048.013-.222.03-.392.219-.392.447 0 .015.001.03.002.045v-.002.13q0 3.9 0 7.801c.001.028.001.062.001.095 0 .408-.079.797-.224 1.152l.007-.021c-.264.614-.792 1.072-1.436 1.235l-.015.003c-.319.096-.687.158-1.067.172h-.008c-.031.002-.067.003-.104.003-.913 0-1.67-.665-1.815-1.536l-.001-.011c-.02-.102-.031-.218-.031-.338 0-.785.485-1.458 1.172-1.733l.013-.004c.315-.127.687-.234 1.072-.305l.036-.005c.287-.06.575-.116.86-.177.341-.05.6-.341.6-.693 0-.007 0-.015 0-.022v.001-.15q0-4.44 0-8.883c0-.002 0-.004 0-.007 0-.129.015-.254.044-.374l-.002.011c.066-.264.277-.466.542-.517l.004-.001c.255-.066.515-.112.774-.165.733-.15 1.466-.3 2.2-.444l2.27-.46c.67-.134 1.34-.27 2.01-.4.181-.042.407-.079.637-.104l.027-.002c.018-.002.04-.004.061-.004.27 0 .489.217.493.485.008.067.012.144.012.222v.001q0 2.865 0 5.732z"/>
  </symbol>
  <symbol id="icon-spotify" viewBox="0 0 24 24">
    <path d="M12 0C5.4 0 0 5.4 0 12s5.4 12 12 12 12-5.4 12-12S18.66 0 12 0zm5.521 17.34c-.24.359-.66.48-1.021.24-2.82-1.74-6.36-2.101-10.561-1.141-.418.122-.779-.179-.899-.539-.12-.421.18-.78.54-.9 4.56-1.021 8.52-.6 11.64 1.32.42.18.479.659.301 1.02zm1.44-3.3c-.301.42-.841.6-1.262.3-3.239-1.98-8.159-2.58-11.939-1.38-.479.12-1.02-.12-1.14-.6-.12-.48.12-1.021.6-1.141C9.6 9.9 15 10.561 18.72 12.84c.361.181.54.78.241 1.2zm.12-3.36C15.24 8.4 8.82 8.16 5.16 9.301c-.6.179-1.2-.181-1.38-.721-.18-.601.18-1.2.72-1.381 4.26-1.26 11.28-1.02 15.721 1.621.539.3.719 1.02.419 1.56-.299.421-1.02.599-1.559.3z"/>
  </symbol>
  <symbol id="icon-bitcoin" viewBox="0 0 32 32">
    <path d="M31.516 19.869c-2.136 8.579-10.819 13.787-19.385 11.652-8.568-2.12-13.787-10.824-11.647-19.381 2.131-8.577 10.819-13.796 19.38-11.661 8.573 2.141 13.792 10.819 11.652 19.396zM23.052 13.719c0.317-2.12-1.303-3.265-3.521-4.036l0.72-2.871-1.756-0.443-0.697 2.813c-0.459-0.12-0.937-0.224-1.417-0.333l0.699-2.839-1.761-0.437-0.719 2.885c-0.38-0.089-0.749-0.177-1.12-0.265l-2.416-0.605-0.469 1.881c0 0 1.303 0.296 1.271 0.312 0.715 0.183 0.844 0.645 0.824 1.021l-1.969 7.895c-0.099 0.22-0.323 0.543-0.817 0.417 0.016 0.025-1.281-0.317-1.281-0.317l-0.88 2.009 2.281 0.568 1.239 0.323-0.724 2.923 1.761 0.432 0.724-2.891c0.479 0.136 0.937 0.255 1.395 0.365l-0.676 2.869 1.76 0.443 0.724-2.921c2.989 0.567 5.24 0.343 6.188-2.365 0.76-2.183-0.043-3.437-1.62-4.26 1.135-0.261 2-1.016 2.239-2.573zM19.036 19.349c-0.536 2.187-4.208 1-5.4 0.703l0.963-3.864c1.193 0.307 5.005 0.895 4.437 3.161zM19.584 13.693c-0.496 1.989-3.548 0.984-4.543 0.733l0.876-3.52c0.989 0.239 4.181 0.697 3.667 2.781z"/>
  </symbol>
  <symbol id="icon-monero" viewBox="0 0 32 32">
    <path d="M16 0c-8.849 0-16 7.161-16 16.021 0 1.781 0.303 3.473 0.823 5.077h4.771v-13.459l10.407 10.423 10.407-10.423v13.459h4.771c0.516-1.604 0.823-3.296 0.823-5.077 0-8.855-7.151-16.021-16-16.021zM13.615 20.412l-4.552-4.563v8.468h-6.719c2.817 4.6 7.896 7.683 13.656 7.683s10.88-3.083 13.661-7.688h-6.724v-8.463l-4.511 4.557-2.385 2.391-2.416-2.391h-0.011z"/>
  </symbol>
  <symbol id="icon-ethereum" viewBox="0 0 226.777 226.777">
    <g>
      <polygon points="112.553,157 112.553,86.977 44.158,116.937"/>
      <polygon points="112.553,82.163 112.553,-0.056 46.362,111.156"/>
      <polygon points="116.962,-0.09 116.962,82.163 184.083,111.566"/>
      <polygon points="116.962,86.977 116.962,157.002 185.405,116.957"/>
      <polygon points="112.553,227.406 112.553,171.085 44.618,131.31"/>
      <polygon points="116.962,227.406 184.897,131.31 116.962,171.085"/>
    </g>
  </symbol>
  <symbol id="icon-arrow-left" viewBox="0 0 24 24">
    <path d="M13.83 19a1 1 0 0 1-.78-.37l-4.83-6a1 1 0 0 1 0-1.27l5-6a1 1 0 0 1 1.54 1.28L10.29 12l4.32 5.36a1 1 0 0 1-.78 1.64z"/>
  </symbol>
  <symbol id="icon-muted" viewBox="0 0 24 24">
    <path d="M16.5 12c0-1.77-1.02-3.29-2.5-4.03v2.21l2.45 2.45c.03-.2.05-.41.05-.63zm2.5 0c0 .94-.2 1.82-.54 2.64l1.51 1.51C20.63 14.91 21 13.5 21 12c0-4.28-2.99-7.86-7-8.77v2.06c2.89.86 5 3.54 5 6.71zM4.27 3L3 4.27 7.73 9H3v6h4l5 5v-6.73l4.25 4.25c-.67.52-1.42.93-2.25 1.18v2.06c1.38-.31 2.63-.95 3.69-1.81L19.73 21 21 19.73l-9-9L4.27 3zM12 4L9.91 6.09 12 8.18V4z"/>
  </symbol>
  <symbol id="icon-unmuted" viewBox="0 0 24 24">
    <path d="M3 9v6h4l5 5V4L7 9H3zm13.5 3c0-1.77-1.02-3.29-2.5-4.03v8.05c1.48-.73 2.5-2.25 2.5-4.02zM14 3.23v2.06c2.89.86 5 3.54 5 6.71s-2.11 5.85-5 6.71v2.06c4.01-.91 7-4.49 7-8.77s-2.99-7.86-7-8.77z"/>
  </symbol>
</svg>
